<?xml version="1.0" encoding="UTF-8"?>
<!DOCTYPE svg PUBLIC "-//W3C//DTD SVG 1.1//EN" "http://www.w3.org/Graphics/SVG/1.1/DTD/svg11.dtd">
<!-- Creator: CorelDRAW 2020 (64 Bit) -->
<svg xmlns="http://www.w3.org/2000/svg" xml:space="preserve" width="5.72539in" height="4.26666in" version="1.1" style="shape-rendering:geometricPrecision; text-rendering:geometricPrecision; image-rendering:optimizeQuality; fill-rule:evenodd; clip-rule:evenodd"
viewBox="0 0 5725.39 4266.66"
 xmlns:xlink="http://www.w3.org/1999/xlink"
 xmlns:xodm="http://www.corel.com/coreldraw/odm/2003">
 <defs>
  <style type="text/css">
   <![CDATA[
    .fil7 {fill:#FEFEFE;fill-rule:nonzero}
    .fil3 {fill:#EEEFEE;fill-rule:nonzero}
    .fil2 {fill:#E9E9E8;fill-rule:nonzero}
    .fil0 {fill:#E5E5E5;fill-rule:nonzero}
    .fil1 {fill:#D8D9D8;fill-rule:nonzero}
    .fil8 {fill:#687175;fill-rule:nonzero}
    .fil4 {fill:#1F2456;fill-rule:nonzero}
    .fil5 {fill:#4643D3;fill-rule:nonzero}
    .fil6 {fill:#5E75FB;fill-rule:nonzero}
    .fil9 {fill:white;fill-rule:nonzero}
   ]]>
  </style>
 </defs>
 <g id="Camada_x0020_1">
  <metadata id="CorelCorpID_0Corel-Layer"/>
  <g id="_1235858480">
   <polygon class="fil0" points="-0.63,3752.37 5724.76,3752.37 5724.76,3749.51 -0.63,3749.51 "/>
   <polygon class="fil0" points="4902.85,3936.68 5151.09,3936.68 5151.09,3933.82 4902.85,3933.82 "/>
   <polygon class="fil0" points="3555.5,3877.26 3946.07,3877.26 3946.07,3874.4 3555.5,3874.4 "/>
   <polygon class="fil0" points="4540.59,3830.34 5050.43,3830.34 5050.43,3827.48 4540.59,3827.48 "/>
   <polygon class="fil0" points="1852.99,3888.07 1980.52,3888.07 1980.52,3885.21 1852.99,3885.21 "/>
   <polygon class="fil0" points="1311.46,3888.07 1751.03,3888.07 1751.03,3885.21 1311.46,3885.21 "/>
   <polygon class="fil0" points="758.63,3839.73 1075.76,3839.73 1075.76,3836.87 758.63,3836.87 "/>
   <path class="fil0" d="M502.23 2.86c-34.46,0 -62.5,28.04 -62.5,62.48l0 3108.11c0,34.46 28.04,62.5 62.5,62.5l2211.13 0c34.45,0 62.49,-28.04 62.49,-62.5l0 -3108.11c0,-34.44 -28.04,-62.48 -62.49,-62.48l-2211.13 0zm2211.13 3235.95l-2211.13 0c-36.04,0 -65.36,-29.31 -65.36,-65.36l0 -3108.11c0,-36.02 29.32,-65.35 65.36,-65.35l2211.13 0c36.03,0 65.35,29.32 65.35,65.35l0 3108.11c0,36.04 -29.32,65.36 -65.35,65.36z"/>
   <path class="fil0" d="M2979 2.86c-34.45,0 -62.48,28.04 -62.48,62.48l0 3108.11c0,34.46 28.03,62.5 62.48,62.5l2211.13 0c34.46,0 62.5,-28.04 62.5,-62.5l0 -3108.11c0,-34.44 -28.04,-62.48 -62.5,-62.48l-2211.13 0zm2211.13 3235.95l-2211.13 0c-36.04,0 -65.35,-29.31 -65.35,-65.36l0 -3108.11c0,-36.02 29.31,-65.35 65.35,-65.35l2211.13 0c36.04,0 65.36,29.32 65.36,65.35l0 3108.11c0,36.04 -29.33,65.36 -65.36,65.36z"/>
   <path class="fil0" d="M1456.78 2158.43c-329.53,-11.3 -587.57,-287.65 -576.29,-617.2 11.31,-329.92 287.66,-587.94 617.19,-576.66 329.53,11.3 587.59,287.63 576.27,617.56 -11.29,329.55 -287.65,587.58 -617.17,576.3zm1016.8 -487.48l5.15 -150.46 -92.39 -30.19c-3.8,-51.41 -12.39,-102.19 -24.63,-151.1l78.3 -57.74 -53.19 -141.33 -96.85 7.8c-23.08,-45.71 -50.21,-89.18 -80.62,-129.96l50.17 -83.74 -103.16 -110.05 -86.58 44.33c-39,-33.14 -80.12,-63.17 -124.13,-89.72l14.03 -96.11 -137.39 -62.36 -62.94 73.78c-47.95,-15.56 -97.64,-27.2 -149.04,-34.91l-23.42 -94.23 -150.86 -5.17 -29.8 92.39c-51.82,4.19 -102.19,12.41 -151.1,24.64l-58.15 -77.92 -141.33 52.81 7.81 96.86c-45.71,23.46 -89.18,50.59 -129.97,81l-83.34 -50.15 -110.45 102.74 44.32 86.97c-33.12,38.61 -63.16,80.13 -89.32,124.15l-96.09 -14.42 -62.74 137.35 74.16 62.96c-15.55,47.97 -27.61,98.04 -34.91,149.07l-94.63 23.78 -5.15 150.48 92.78 30.2c3.79,51.81 12.4,102.19 24.63,151.09l-78.29 57.74 53.19 141.36 96.85 -7.83c23.08,45.7 50.21,89.18 80.61,129.98l-50.18 83.73 103.16 110.06 86.57 -44.35c38.62,33.14 80.12,63.19 124.13,89.73l-14.42 96.08 137.38 62.35 63.35 -73.75c47.95,15.56 97.64,27.21 149.06,34.93l23.41 94.2 150.87 5.18 29.8 -92.39c51.81,-4.18 102.18,-12.39 151.09,-24.63l57.75 77.9 141.33 -52.8 -7.41 -96.83c45.72,-23.48 88.79,-50.62 129.97,-81.02l83.35 50.17 110.44 -102.76 -44.31 -86.97c33.12,-38.63 63.16,-80.13 89.31,-124.15l96.1 14.43 62.74 -137.38 -74.17 -62.96c15.56,-47.94 27.59,-97.63 34.91,-149.05l94.24 -23.81z"/>
   <path class="fil0" d="M4778.25 954.29c-27.92,-29.9 -26.31,-76.78 3.59,-104.69 29.94,-27.96 76.82,-26.35 104.74,3.55 27.93,29.91 26.31,76.78 -3.62,104.74 -29.9,27.92 -76.79,26.31 -104.71,-3.6zm270.43 219.07l37.94 -35.44 -15.16 -29.87c11.61,-13.46 21.89,-27.94 30.84,-42.85l33.17 5 21.49 -47.43 -25.52 -21.72c5.52,-16.75 9.5,-33.98 12.04,-51.33l32.66 -8.2 1.68 -51.98 -31.92 -10.29c-1.43,-17.59 -4.14,-34.94 -8.39,-52.15l26.86 -20.02 -18.3 -48.7 -33.35 2.63c-7.9,-15.48 -17.18,-30.45 -27.83,-44.87l17.27 -28.67 -35.53 -38.06 -29.8 15.28c-13.66,-11.61 -27.94,-21.89 -42.85,-30.84l4.82 -33.17 -47.33 -21.59 -21.71 25.52c-16.88,-5.42 -34.09,-9.4 -51.45,-11.94l-8.1 -32.56 -51.98 -1.87 -10.4 32.02c-17.5,1.35 -34.94,4.15 -52.06,8.5l-19.91 -26.94 -48.79 18.2 2.72 33.43c-15.48,7.9 -30.63,17.18 -44.86,27.84l-28.87 -17.28 -37.95 35.44 15.25 29.99c-11.7,13.55 -21.89,27.94 -30.83,42.85l-33.17 -5.03 -21.49 47.45 25.52 21.7c-5.51,16.77 -9.5,34 -12.04,51.35l-32.65 8.18 -1.7 52.01 31.94 10.28c1.33,17.5 4.12,34.95 8.39,52.16l-26.94 19.9 18.3 48.71 33.43 -2.54c7.9,15.49 17.17,30.45 27.83,44.85l-17.27 28.69 35.52 38.05 29.81 -15.26c13.65,11.62 27.93,21.89 42.85,30.83l-4.93 33.08 47.35 21.58 21.8 -25.42c16.87,5.43 34,9.31 51.45,11.93l8.09 32.57 51.98 1.87 10.41 -32.02c17.48,-1.33 34.94,-4.12 52.04,-8.48l19.91 26.96 48.8 -18.2 -2.74 -33.45c15.48,-7.9 30.54,-17.07 44.87,-27.82l28.78 17.17z"/>
   <path class="fil0" d="M2879.67 3100.56c-156.35,-5.36 -278.48,-136.62 -273.14,-292.52 5.35,-156.35 136.16,-278.49 292.51,-273.15 156.36,5.36 278.51,136.17 273.15,292.52 -5.33,155.91 -136.17,278.51 -292.52,273.15zm783.83 -382.34l-118.41 -81.77 -0.07 -0.28c-11.7,-43.01 -27.87,-84.43 -47.62,-123.34l30.34 -119.06 -171.76 -183.96 -120.91 22.13c-37.44,-22.34 -77.63,-41.28 -119.71,-55.91l-0.3 -0.09 -73.52 -123.78 -251.5 -8.62 -81.78 118.42 -0.47 0.11c-42.98,11.7 -84.33,27.84 -123.21,47.56l-119 -30.33 -183.94 171.77 22.09 120.65 -0.07 0.12c-22.81,37.85 -41.3,78.06 -55.93,120.15l-123.76 73.48 -8.62 251.53 118.53 81.84c11.69,43.32 27.35,84.63 47.48,123.87l0.02 0.05 -30.25 118.71 171.76 183.93 120.15 -21.98c37.93,22.42 78.16,41.39 120.76,56.03l0.11 0.03 73.39 123.6 251.51 8.62 81.72 -118.33c43.48,-11.71 84.91,-27.85 124.26,-47.62l0.04 -0.02 118.47 30.19 183.94 -171.75 -22.1 -120.69c22.81,-37.87 41.31,-78.08 55.94,-120.18l0.01 -0.02 123.81 -73.52 8.61 -251.53z"/>
   <path class="fil0" d="M3854.73 1055.39c-168.3,0 -308.02,133.91 -313.83,303.4 -5.93,173.11 130.08,318.77 303.2,324.71 83.88,2.81 163.87,-27.11 225.22,-84.47 61.3,-57.3 96.63,-134.98 99.5,-218.72 5.92,-173.13 -130.09,-318.8 -303.2,-324.74 -3.64,-0.12 -7.28,-0.18 -10.89,-0.18zm0.44 676.66c-4.24,0 -8.46,-0.08 -12.72,-0.22 -199.77,-6.85 -356.72,-174.94 -349.88,-374.7 6.85,-199.76 175.21,-356.67 374.7,-349.89 199.77,6.84 356.72,174.94 349.88,374.71 -3.31,96.65 -44.09,186.29 -114.8,252.4 -67.69,63.27 -155.04,97.7 -247.18,97.7zm177.63 -868.51l0.11 0 -0.11 0zm-283.78 1085.67l171.86 5.9 56.93 -82.42c3.25,-4.72 8.07,-8.12 13.6,-9.61 31.66,-8.52 63.08,-20.55 93.38,-35.8l0.16 -0.08c5.05,-2.48 10.94,-3.25 16.7,-1.75l80.6 20.52 125.68 -117.36 -15.04 -82.14c-1.06,-5.79 0.04,-11.78 3.07,-16.83 16.58,-27.52 30.64,-57.7 41.81,-89.71 1.83,-5.68 5.71,-10.45 10.76,-13.43l86.14 -51.16 5.9 -171.87 -82.49 -56.97c-4.32,-2.98 -7.54,-7.28 -9.2,-12.24l-0.56 -1.93c-8.62,-31.58 -20.61,-62.61 -35.65,-92.24 -2.66,-5.23 -3.31,-11.24 -1.87,-16.92l20.66 -81.05 -117.37 -125.71 -82.32 15.07c-5.77,1.07 -11.71,-0.02 -16.74,-3.02 -28.63,-17.08 -58.85,-31.19 -89.84,-41.98 -1.75,-0.59 -3.53,-1.41 -5.05,-2.35 -3.34,-2.05 -6.13,-4.88 -8.11,-8.24l-51.21 -86.22 -171.88 -5.89 -56.95 82.49c-3.39,4.91 -8.47,8.37 -14.23,9.76 -31.8,8.71 -62.73,20.67 -92.23,35.65 -5.23,2.65 -11.25,3.32 -16.91,1.87l-81.02 -20.66 -125.69 117.39 15.03 82.13c0.94,5.15 0.19,10.48 -2.16,15.16l-1.09 1.94c-16.62,27.62 -30.7,57.89 -41.84,89.99 -1.88,5.38 -5.6,9.95 -10.5,12.86l-86.2 51.19 -5.89 171.87 82.56 57.02c4.7,3.25 8.11,8.07 9.59,13.59 8.9,32.93 20.89,64.19 35.61,92.94 0.85,1.65 1.51,3.39 1.96,5.2 0.97,3.88 0.97,7.96 -0.02,11.83l-20.59 80.78 117.37 125.68 81.74 -14.96c5.75,-1.04 11.65,0.03 16.66,2.98 29.14,17.23 59.52,31.34 90.31,41.96 5.57,1.76 10.39,5.52 13.46,10.7l51.11 86.07zm184.24 54.68l-0.82 0 -198.3 -6.79c-8.23,-0.28 -15.76,-4.74 -19.96,-11.81l-53.39 -89.93c-28.39,-10.29 -56.36,-23.28 -83.39,-38.68l-85.96 15.72c-8.12,1.54 -16.4,-1.25 -22.02,-7.28l-135.42 -145c-5.62,-6.02 -7.79,-14.49 -5.76,-22.48l21.62 -84.85c-13.13,-26.86 -24.13,-55.57 -32.74,-85.54l-86.24 -59.56c-6.78,-4.67 -10.71,-12.48 -10.43,-20.71l6.8 -198.31c0.28,-8.22 4.73,-15.76 11.82,-19.96l90.07 -53.49c10.69,-29.24 23.62,-57.08 38.59,-83l-15.8 -86.26c-1.48,-8.1 1.27,-16.41 7.28,-22.02l145.03 -135.43c6.02,-5.63 14.5,-7.79 22.48,-5.76l85.13 21.71c27.55,-13.4 56.17,-24.43 85.31,-32.87l59.5 -86.18c4.68,-6.78 12.37,-10.97 20.72,-10.42l198.29 6.8c8.24,0.27 15.76,4.73 19.96,11.81l53.5 90.07c28.42,10.41 56.19,23.36 82.75,38.61l86.5 -15.83c8.12,-1.48 16.4,1.26 22.03,7.27l135.41 145.04c5.62,6.04 7.78,14.5 5.76,22.48l-21.7 85.16c13.41,27.56 24.44,56.17 32.88,85.28l86.17 59.5c6.78,4.67 10.7,12.49 10.43,20.73l-6.79 198.3c-0.29,8.23 -4.74,15.76 -11.83,19.96l-90.11 53.51c-10.67,29.23 -23.61,57.07 -38.54,82.94l15.79 86.29c1.48,8.1 -1.26,16.41 -7.28,22.02l-145.02 135.41c-6.02,5.63 -14.47,7.8 -22.48,5.75l-84.75 -21.59c-27.94,13.48 -56.7,24.5 -85.74,32.87l-59.45 86.09c-4.53,6.55 -11.97,10.43 -19.9,10.43z"/>
   <polygon class="fil1" points="4390.04,576.78 4307.9,554.72 4285.84,472.58 4318.01,440.43 4351.94,510.69 4422.21,544.62 "/>
   <path class="fil1" d="M4395.15 521.8c14.96,-14.97 14.96,-39.36 -0.01,-54.33 -14.96,-14.95 -39.24,-14.85 -54.21,0.11l40.86 -61.29 54.8 27.7 12.01 57.57 -53.45 30.23z"/>
   <path class="fil2" d="M4420.83 496.13c14.96,-14.98 14.96,-39.37 0,-54.33 -14.97,-14.96 -39.24,-14.84 -54.21,0.11 -14.96,14.97 -14.96,39.14 0,54.1 14.97,14.96 39.24,15.07 54.21,0.12zm-109.3 -49.22l60.2 -60.2 82.13 22.06 22.06 82.13 -60.19 60.21 -82.15 -22.06 -22.06 -82.14z"/>
   <polygon class="fil1" points="1032.47,2768.28 1076.55,2756.44 1088.38,2712.38 1071.13,2695.12 1052.92,2732.81 1015.22,2751.04 "/>
   <path class="fil1" d="M1029.73 2738.78c-8.03,-8.04 -8.03,-21.12 0,-29.16 8.03,-8.03 21.06,-7.97 29.09,0.06l-21.92 -32.89 -29.41 14.86 -6.44 30.89 28.68 16.23z"/>
   <path class="fil2" d="M1015.95 2725c-8.03,-8.03 -8.03,-21.12 0,-29.15 8.03,-8.03 21.06,-7.97 29.09,0.06 8.03,8.03 8.03,21 0,29.03 -8.03,8.03 -21.06,8.09 -29.09,0.06zm58.66 -26.42l-32.3 -32.29 -44.08 11.83 -11.83 44.08 32.3 32.3 44.07 -11.84 11.84 -44.09z"/>
   <path class="fil2" d="M873.78 351.64l36.58 36.6c9.52,9.53 25.11,9.53 34.64,0 9.52,-9.53 9.52,-25.12 0,-34.65l-36.59 -36.57c-9.53,-9.53 -25.11,-9.53 -34.64,0 -9.53,9.53 -9.53,25.1 0,34.63z"/>
   <path class="fil1" d="M848 260.53c28.2,-10.11 58.76,3.13 68.26,29.59 9.5,26.46 -5.65,56.12 -33.84,66.24 -28.19,10.12 -58.75,-3.12 -68.25,-29.57 -9.5,-26.47 5.65,-56.13 33.83,-66.26z"/>
   <polygon class="fil2" points="808.13,320.62 813.44,335.38 922.3,296.29 917,281.53 "/>
   <path class="fil3" d="M5082.24 4137c0,71.61 -994,129.66 -2220.18,129.66 -1226.17,0 -2220.18,-58.05 -2220.18,-129.66 0,-71.61 994.01,-129.67 2220.18,-129.67 1226.19,0 2220.18,58.06 2220.18,129.67z"/>
   <path class="fil4" d="M1250.57 1062.57c-1.94,1.79 -7.5,8.99 -15.48,36.89 -10.53,36.79 -4.04,70.35 8.33,94.42 2.37,-4.96 4.02,-10.69 5.15,-16.06 11.88,-56.22 8.42,-107.11 2.01,-115.25zm75.41 36.08c-2.96,5.56 -7.93,16.99 -15.35,40.41 -9.83,31.01 -9.88,55.93 -4.41,74.98l1.06 -2.87c13.47,-39.37 20.03,-93.61 18.69,-112.52zm82.13 48.24c-0.04,0 -6.48,0.05 -20.92,26.87 -16.57,30.74 -20.78,56.05 -12.92,77.37 0.96,2.61 2.11,5.15 3.44,7.67 6.12,-2.61 11.35,-6.87 15.13,-12.64 16.03,-24.52 23.72,-74.87 17.75,-94.55 -1.22,-4.03 -2.48,-4.72 -2.48,-4.72zm64.74 188.58l-2.06 -0.39c-51.54,-19.96 -82.38,-39.46 -98.4,-62.89 -11.63,2.34 -24.65,0.79 -37.01,-5.08 -12,-5.7 -23.54,-15.68 -31.83,-30.02 -7.74,5.95 -17.29,7.59 -27.78,4.3 -11.63,-3.67 -23.74,-13.46 -33.8,-27.61 -6.4,4.63 -12.96,5.31 -17.77,4.91 -34.04,-2.77 -80.17,-70.54 -83.48,-142.75 -0.14,-3.16 2.3,-5.84 5.46,-5.98 3.09,-0.26 5.84,2.29 5.98,5.46 3.14,68.53 47.06,129.75 72.98,131.84 4.2,0.41 7.72,-0.91 10.67,-3.2 -15.56,-27.29 -23.63,-66.2 -11.72,-107.77 9.85,-34.41 18.54,-47.86 28.99,-45.37 19.72,4.9 17.13,79.82 6.69,129.25 -2.37,11.2 -5.79,19.25 -9.68,25 9.03,13.34 19.74,22.32 29.12,25.28 8.37,2.62 14.58,0.4 19.17,-3.96 -9,-22.17 -10.87,-52.38 1.35,-90.91 16.07,-50.7 22.54,-52.09 26.41,-52.91 2.72,-0.57 5.45,0.32 7.39,2.52 10.58,11.94 -2.06,90.71 -15.39,129.67 -1.73,5.07 -3.88,9.49 -6.38,13.25 7.11,13.94 17.57,23.43 28.54,28.64 8.8,4.19 17.82,5.7 26.03,4.94 -1.03,-2.17 -1.96,-4.36 -2.8,-6.59 -9.07,-24.6 -4.64,-52.97 13.57,-86.78 12.08,-22.42 21.93,-32.87 31,-32.89l0.01 0c2.7,0 7.73,1 11.3,7.58 9.98,18.43 2.74,79.23 -16.98,109.4 -4.65,7.11 -11.07,12.49 -18.53,16.01 15.34,20.18 44.48,37.95 91.02,56 2.94,1.13 4.41,4.44 3.27,7.4 -0.87,2.27 -3.05,3.65 -5.34,3.65z"/>
   <path class="fil4" d="M1937.98 1807.62c0.65,1.78 3.2,6.49 13.35,15.89 17.02,15.74 32.5,22.73 47.3,21.11 1.22,-0.11 2.45,-0.3 3.67,-0.55 -0.81,-3.47 -2.46,-6.69 -4.97,-9.45 -16.11,-17.66 -51.53,-28.83 -59.35,-27zm-39.96 48.65c3.85,2.84 9.37,6.59 17.24,11.53 15.54,9.71 29.39,14.2 41.24,15.13 -18.98,-11.76 -43.8,-22.18 -58.48,-26.67zm10.17 79.41c-17.46,0 -35.83,-3.97 -52.23,-13.6 -2.74,-1.61 -3.64,-5.11 -2.05,-7.84 1.6,-2.74 5.12,-3.62 7.85,-2.04 40.84,23.98 93.64,7.25 104.51,-10.22 1.26,-2.05 2.41,-4.65 1.68,-7.69 -16.16,1.72 -36.02,-2.57 -58.76,-16.79 -29.14,-18.2 -31.38,-23.62 -31.2,-27.96 0.11,-2.57 1.57,-4.8 3.91,-5.99 11.39,-5.79 63.04,18.02 84.56,32.16 2.82,1.86 5.2,3.86 7.12,5.99 9.52,-2.32 16.89,-7.23 21.79,-13.12 3.35,-4.03 5.61,-8.44 6.72,-12.85l-2.29 0.28c-18.31,1.85 -36.68,-6.01 -56.24,-24.09 -13.44,-12.43 -18.67,-20.99 -16.93,-27.78 0.55,-2.15 2.36,-6.01 8.22,-7.48 15.85,-3.94 54.94,12.72 70.93,30.24 3.59,3.94 6.04,8.57 7.34,13.56 14.94,-7.02 30.74,-22.76 49.46,-48.91 1.84,-2.57 5.41,-3.17 7.99,-1.33 2.56,1.83 3.16,5.42 1.33,7.99 -21.64,30.22 -39.68,47.35 -57.79,54.35 -0.71,8.06 -4.04,16.26 -9.95,23.36 -5.81,6.95 -14.27,12.93 -24.98,16.16 1.15,5.15 0.11,10.6 -3.2,15.93 -9.65,15.55 -37.34,27.67 -67.8,27.67z"/>
   <path class="fil5" d="M1156.98 2083.99l297.25 -521.79 82.94 452.72 -380.19 69.07zm902.87 -164.02l-178.43 32.41 -162 -884.13 -344.24 62.53 -560.96 996.21 60.23 328.72 719.54 -130.71 49.26 268.88 344.26 -62.54 -49.26 -268.86 178.43 -32.43 -56.82 -310.09z"/>
   <path class="fil5" d="M3496.78 1008.11c-6.65,-61.08 -18.86,-115.36 -36.61,-162.81 -17.74,-47.46 -44.42,-93.99 -80.04,-139.59 -35.61,-45.59 -84.1,-85.15 -145.47,-118.7 -61.38,-33.52 -142.38,-56.87 -243.01,-69.99 -209.46,-27.28 -372.74,9.89 -489.89,111.53 -117.15,101.65 -194.23,296.36 -231.28,584.13 -15.07,117.04 -18.8,225.22 -11.17,324.57 7.58,99.32 25.81,179.23 54.7,239.69 39.52,84.96 95.44,152.8 167.75,203.5 72.29,50.7 171.33,84.28 297.15,100.68 224.4,29.22 390.7,-13.85 498.9,-129.26 108.19,-115.4 179.98,-310.45 215.33,-585.15 15.78,-122.54 17,-242.08 3.66,-358.61z"/>
   <path class="fil4" d="M2882.29 1963.59c-27.54,-0.95 -56.85,-3.44 -87.12,-7.39 -104.82,-13.63 -185.93,-40.17 -241.07,-78.86 -54.4,-38.15 -95.58,-88.35 -125.87,-153.51l-0.57 -1.18c-22.01,-46.07 -36.39,-111.69 -42.76,-194.98 -6.93,-90.32 -3.39,-190.89 10.51,-298.9 40.87,-317.43 125.28,-449.87 188.91,-505.06 74.18,-64.35 174.29,-93.45 306.08,-88.93 27,0.92 55.59,3.33 84.98,7.15 84.59,11.02 151.5,29.74 198.91,55.62 45.91,25.1 81.77,53.94 106.59,85.72 27.53,35.22 48.15,70.93 61.31,106.13 14,37.46 23.89,81.99 29.38,132.35 12.2,106.59 11.04,217.04 -3.35,328.89 -31.76,246.64 -93.09,419.93 -182.3,515.07 -66.17,70.59 -165.49,102.61 -303.61,97.89l-0.02 0z"/>
   <path class="fil5" d="M2813.3 1152c-94.98,-3.25 -169.37,-82.91 -166.11,-177.9 3.25,-95.1 82.92,-169.47 177.9,-166.22 94.98,3.26 169.37,82.91 166.11,178 -3.25,95 -82.92,169.37 -177.9,166.12zm293.08 -140.52l1.49 -43.37 -26.63 -8.69c-1.09,-14.82 -3.57,-29.46 -7.1,-43.56l22.57 -16.64 -15.33 -40.74 -27.93 2.24c-6.65,-13.17 -14.47,-25.7 -23.24,-37.46l14.46 -24.13 -29.74 -31.72 -24.95 12.77c-11.24,-9.55 -23.09,-18.2 -35.78,-25.85l4.04 -27.71 -39.59 -17.98 -18.14 21.28c-13.83,-4.49 -28.15,-7.85 -42.96,-10.07l-6.75 -27.16 -43.48 -1.49 -8.59 26.62c-14.94,1.22 -29.46,3.59 -43.56,7.1l-16.76 -22.46 -40.73 15.22 2.24 27.93c-13.17,6.77 -25.7,14.57 -37.46,23.35l-24.02 -14.46 -31.84 29.61 12.78 25.08c-9.55,11.12 -18.2,23.09 -25.74,35.78l-27.7 -4.17 -18.08 39.6 21.37 18.15c-4.48,13.83 -7.96,28.26 -10.07,42.96l-27.28 6.86 -1.48 43.37 26.74 8.7c1.09,14.93 3.57,29.46 7.1,43.55l-22.57 16.66 15.33 40.73 27.92 -2.24c6.65,13.17 14.47,25.69 23.25,37.45l-14.48 24.14 29.74 31.72 24.96 -12.78c11.13,9.55 23.09,18.22 35.77,25.87l-4.16 27.7 39.6 17.97 18.26 -21.26c13.82,4.48 28.15,7.83 42.96,10.07l6.74 27.15 43.49 1.49 8.59 -26.63c14.93,-1.2 29.45,-3.56 43.55,-7.1l16.65 22.45 40.74 -15.22 -2.14 -27.91c13.18,-6.77 25.59,-14.6 37.47,-23.36l24.02 14.46 31.83 -29.62 -12.77 -25.06c9.54,-11.14 18.2,-23.11 25.74,-35.8l27.7 4.17 18.08 -39.61 -21.38 -18.15c4.49,-13.82 7.96,-28.14 10.06,-42.96l27.16 -6.86z"/>
   <path class="fil5" d="M3088.31 1967.7l-29.24 -3.28 -3.24 -18.74c-0.71,-0.16 -1.42,-0.32 -2.12,-0.49 53.7,-16.06 97.52,-42.47 132.2,-79.48 36.1,-38.51 67.65,-89.82 94.51,-153.62l5.71 19.86 -16.03 10.17c1.69,9.71 2.54,19.66 2.6,29.72l17.57 7.16 -3.13 29.24 -18.87 3.24c-2.21,9.57 -5.08,18.98 -8.89,28.36l13.48 13.33 -14.14 25.78 -18.5 -4.11c-5.91,8.24 -12.33,15.79 -19.27,22.79l7.44 17.54 -23.02 18.38 -15.43 -10.98c-8.5,5.34 -17.36,9.85 -26.47,13.7l0.02 19.02 -28.16 8.29 -10.17 -16.16c-9.84,1.67 -19.79,2.67 -29.7,2.73l-7.18 17.57z"/>
   <path class="fil6" d="M3014 1950.3l-25.78 -14.15 4.25 -18.63c-8.24,-5.76 -15.79,-12.2 -22.78,-19.13l-17.68 7.43 -18.38 -23.02 10.99 -15.56c-5.34,-8.36 -9.85,-17.22 -13.7,-26.33l-19.03 0.02 -8.28 -28.29 16.17 -10.16c-1.69,-9.71 -2.68,-19.66 -2.61,-29.58l-17.57 -7.3 3.14 -29.24 18.73 -3.1c2.21,-9.71 5.21,-19.12 9.02,-28.51l-13.48 -13.33 14.15 -25.78 18.48 4.12c5.78,-8.24 12.33,-15.79 19.15,-22.8l-7.31 -17.54 22.87 -18.38 15.57 11c8.49,-5.34 17.36,-9.86 26.47,-13.7l-0.16 -19.04 28.3 -8.27 10.17 16.16c9.83,-1.69 19.65,-2.68 29.7,-2.74l7.17 -17.57 29.23 3.28 3.25 18.72c9.57,2.21 19.12,5.08 28.37,9.01l13.46 -13.6 25.78 14.14 -4.26 18.63c8.25,5.77 15.8,12.19 22.8,19.13l17.54 -7.31 18.38 22.88 -10.85 15.57c5.35,8.35 9.86,17.22 13.7,26.46l19.03 -0.15 2.44 8.43c-26.86,63.8 -58.41,115.11 -94.51,153.62 -34.69,37.01 -78.5,63.42 -132.2,79.48 -8.86,-2.13 -17.69,-4.85 -26.26,-8.37l-13.46 13.48zm80.89 -229.05c-18.01,0 -35.45,9.55 -44.74,26.46 -13.58,24.73 -4.59,55.85 20.13,69.44 7.79,4.27 16.19,6.3 24.5,6.3 18.08,0 35.65,-9.62 44.95,-26.58 13.57,-24.72 4.46,-55.72 -20.28,-69.28 -7.81,-4.3 -16.25,-6.33 -24.56,-6.33z"/>
   <path class="fil7" d="M3223.44 1423.57c-45.07,-1.55 -80.27,-39.38 -78.74,-84.31 1.54,-45.07 39.25,-80.28 84.31,-78.74 45.07,1.53 80.28,39.24 78.74,84.32 -1.54,44.93 -39.25,80.27 -84.31,78.72zm225.93 -110.2l-34.13 -23.57 -0.02 -0.08c-3.38,-12.4 -8.04,-24.34 -13.73,-35.56l8.75 -34.32 -49.5 -53.02 -34.85 6.38c-10.79,-6.44 -22.37,-11.9 -34.5,-16.12l-0.09 -0.02 -21.18 -35.69 -72.51 -2.48 -23.56 34.14 -0.14 0.03c-12.39,3.38 -24.31,8.03 -35.5,13.71l-34.31 -8.75 -53.03 49.52 6.38 34.78 -0.02 0.04c-6.57,10.91 -11.91,22.5 -16.12,34.63l-35.67 21.18 -2.48 72.51 34.16 23.58c3.38,12.49 7.89,24.4 13.7,35.71l0 0.02 -8.71 34.21 49.5 53.03 34.64 -6.34c10.93,6.46 22.52,11.93 34.81,16.15l0.02 0.01 21.16 35.62 72.49 2.49 23.56 -34.1c12.54,-3.38 24.47,-8.04 35.81,-13.74l0.02 0 34.15 8.7 53.02 -49.5 -6.37 -34.79c6.57,-10.91 11.91,-22.51 16.12,-34.65l0 0 35.69 -21.2 2.48 -72.5z"/>
   <path class="fil5" d="M3640.19 660.54c-2.98,-16.67 8.14,-32.58 24.76,-35.56 16.68,-2.98 32.57,8.09 35.54,24.77 2.99,16.66 -8.08,32.56 -24.76,35.54 -16.63,2.98 -32.57,-8.09 -35.55,-24.76zm58.26 74.27l5.98 -14.37 0.02 -0.02c4.28,-2.22 8.3,-4.87 11.98,-7.84l13.28 0.52 15.57 -22.36 -5.09 -12.29c1.51,-4.48 2.61,-9.15 3.19,-13.94l0.02 -0.04 11.43 -10.59 -4.8 -26.81 -14.39 -5.96 -0.02 -0.05c-2.21,-4.28 -4.86,-8.3 -7.83,-11.96l0.52 -13.28 -22.36 -15.57 -12.26 5.08 -0.01 -0.01c-4.52,-1.56 -9.2,-2.6 -13.99,-3.19l-10.58 -11.43 -26.82 4.79 -5.98 14.41c-4.31,2.21 -8.33,4.82 -12.04,7.84l0 0 -13.24 -0.5 -15.57 22.35 5.06 12.21c-1.51,4.54 -2.61,9.22 -3.19,14.06l0 0.01 -11.42 10.58 4.8 26.81 14.38 5.96c2.22,4.34 4.88,8.36 7.85,12.07l0.01 0.01 -0.5 13.21 22.35 15.57 12.27 -5.07c4.54,1.56 9.2,2.6 13.99,3.18l0.01 0 10.59 11.43 26.81 -4.8z"/>
   <path class="fil5" d="M3384.3 658.84l-8.74 -7.39c15.2,-18 36.76,-40.81 68.8,-57.58l5.3 10.16c-34.15,17.86 -56.02,43.76 -65.36,54.81z"/>
   <path class="fil5" d="M3475.72 593.71l-4.52 -10.54c43.31,-18.55 88.57,-25.79 134.42,-21.53l-1.07 11.41c-43.97,-4.19 -87.3,2.84 -128.83,20.66z"/>
   <path class="fil5" d="M3454.11 672.93l-9.47 -6.44c23.52,-34.54 70,-64.63 113.04,-73.16l2.22 11.22c-40.33,8.02 -83.83,36.13 -105.79,68.37z"/>
   <path class="fil7" d="M2568.54 1462.39c-20.82,31.42 -28.16,69.07 -20.65,106.01 7.5,36.94 28.94,68.75 60.35,89.58 64.88,42.97 152.63,25.2 195.59,-39.64 42.99,-64.86 25.2,-152.64 -39.64,-195.67 -64.83,-42.97 -152.6,-25.17 -195.66,39.72zm117.46 230.48c-28.94,0 -58.19,-8.19 -84.08,-25.34 -33.96,-22.51 -57.14,-56.91 -65.25,-96.85 -8.11,-39.94 -0.18,-80.64 22.32,-114.61l0.01 0c46.55,-70.14 141.44,-89.4 211.52,-42.94 70.11,46.51 89.34,141.41 42.87,211.53 -29.31,44.24 -77.91,68.21 -127.39,68.21zm-56.31 37.06l1.62 0.22c12.26,3.61 25.02,5.99 37.91,7.06 1.39,0.12 2.68,0.73 3.64,1.73l23.3 24.02 67.58 -13.7 12.14 -31.28c0.5,-1.3 1.46,-2.37 2.69,-3.01 11.49,-5.98 22.33,-13.1 32.24,-21.18 1.04,-0.86 2.22,-1.43 3.71,-1.3l39.73 0.61 38.1 -57.48 -16.07 -36.44c-0.55,-1.24 -0.63,-2.62 -0.25,-3.92 3.62,-12.5 5.99,-25.25 7.04,-37.91 0.12,-1.39 0.72,-2.67 1.72,-3.64l24.05 -23.31 -13.71 -67.57 -31.22 -12.11c-1.33,-0.52 -2.41,-1.5 -3.05,-2.77 -5.95,-11.45 -13.09,-22.26 -21.19,-32.13 -0.86,-1.06 -1.33,-2.37 -1.31,-3.72l0.61 -39.78 -57.47 -38.1 -36.37 16.04c-1.24,0.53 -2.61,0.62 -3.91,0.26 -12.41,-3.61 -25.21,-5.98 -38.05,-7.05 -1.38,-0.11 -2.67,-0.74 -3.63,-1.72l-23.29 -24 -67.57 13.7 -12.1 31.22c-0.5,1.3 -1.46,2.37 -2.7,3 -11.41,5.94 -22.26,13.09 -32.26,21.24 -1.04,0.85 -2.44,1.45 -3.72,1.3l-39.74 -0.62 -38.08 57.5 16.06 36.39c0.69,1.57 0.64,3.35 -0.12,4.88 -3.22,11.44 -5.6,24.22 -6.67,37.03 -0.12,1.37 -0.72,2.66 -1.72,3.63l-24.03 23.3 13.7 67.58 31.21 12.09c1.4,0.54 2.52,1.6 3.14,2.94 5.93,11.36 13.04,22.15 21.1,31.96 0.86,1.06 1.34,2.39 1.31,3.75l-0.61 39.76 57.48 38.11 36.45 -16.08 2.31 -0.49zm64.55 44.99c-1.53,0 -3.02,-0.61 -4.11,-1.74l-24.01 -24.74c-12.23,-1.16 -24.32,-3.4 -36.01,-6.71l-37.42 16.5c-1.77,0.83 -3.83,0.61 -5.47,-0.46l-62.69 -41.57c-1.63,-1.07 -2.59,-2.9 -2.57,-4.85l0.63 -40.81c-7.61,-9.48 -14.42,-19.76 -20.23,-30.65l-32.12 -12.44c-1.81,-0.71 -3.15,-2.29 -3.54,-4.2l-14.94 -73.71c-0.39,-1.91 0.22,-3.89 1.63,-5.26l24.74 -24c1.15,-12.16 3.39,-24.28 6.69,-36.06l-16.49 -37.37c-0.79,-1.79 -0.61,-3.85 0.47,-5.48l41.56 -62.7c1.08,-1.63 2.6,-2.63 4.87,-2.56l40.77 0.63c9.57,-7.65 19.88,-14.44 30.68,-20.21l12.46 -32.13c0.71,-1.82 2.29,-3.16 4.2,-3.55l73.71 -14.94c1.93,-0.38 3.89,0.23 5.26,1.62l23.98 24.72c12.19,1.15 24.31,3.4 36.11,6.7l37.37 -16.46c1.78,-0.79 3.83,-0.61 5.47,0.47l62.69 41.56c1.63,1.07 2.59,2.91 2.55,4.87l-0.62 40.82c7.63,9.49 14.41,19.78 20.2,30.63l32.14 12.47c1.83,0.7 3.16,2.28 3.55,4.19l14.94 73.71c0.39,1.91 -0.23,3.89 -1.63,5.26l-24.76 24.01c-1.13,12.03 -3.38,24.11 -6.7,36l16.5 37.42c0.79,1.79 0.62,3.86 -0.46,5.49l-41.56 62.68c-1.07,1.63 -2.79,2.44 -4.85,2.56l-40.8 -0.62c-9.5,7.58 -19.8,14.35 -30.64,20.14l-12.48 32.2c-0.71,1.83 -2.3,3.16 -4.2,3.55l-73.72 14.96 -1.14 0.1z"/>
   <path class="fil5" d="M3966.01 1900.59l443.81 -404.54 -60.87 456.22 -382.94 -51.69zm909.4 122.73l-179.71 -24.25 118.86 -890.97 -346.74 -46.79 -841.09 774.37 -44.2 331.27 724.74 97.81 -36.15 270.95 346.75 46.78 36.14 -270.93 179.72 24.24 41.68 -312.48z"/>
   <path class="fil4" d="M4512.51 2574l-1.04 -0.09c-3.1,-0.57 -5.16,-3.56 -4.59,-6.67l267.1 -1464.9c0.56,-3.1 3.57,-5.04 6.66,-4.6 3.11,0.56 5.17,3.55 4.6,6.67l-267.1 1464.89c-0.5,2.77 -2.91,4.7 -5.62,4.7z"/>
   <path class="fil4" d="M4749.51 1126.96c-0.17,5.17 -4.51,9.22 -9.7,9.06 -5.17,-0.18 -9.22,-4.53 -9.06,-9.71 0.18,-5.18 4.52,-9.24 9.7,-9.06 5.19,0.19 9.24,4.51 9.06,9.71z"/>
   <path class="fil4" d="M4711.35 1325.06c-0.19,5.18 -4.52,9.23 -9.7,9.06 -5.19,-0.17 -9.24,-4.53 -9.06,-9.7 0.17,-5.18 4.52,-9.24 9.7,-9.06 5.18,0.17 9.23,4.52 9.06,9.7z"/>
   <path class="fil4" d="M4673.19 1523.17c-0.17,5.18 -4.52,9.23 -9.7,9.06 -5.17,-0.19 -9.23,-4.53 -9.06,-9.71 0.18,-5.17 4.52,-9.23 9.7,-9.06 5.19,0.18 9.24,4.53 9.06,9.7z"/>
   <path class="fil4" d="M4598.15 1729.39c-0.17,5.18 -4.51,9.23 -9.7,9.06 -5.18,-0.18 -9.23,-4.52 -9.06,-9.7 0.19,-5.18 4.52,-9.23 9.7,-9.06 5.19,0.19 9.24,4.52 9.06,9.7z"/>
   <path class="fil4" d="M4596.87 1919.39c-0.17,5.18 -4.51,9.22 -9.7,9.06 -5.18,-0.19 -9.23,-4.54 -9.04,-9.71 0.17,-5.17 4.51,-9.24 9.69,-9.06 5.19,0.18 9.24,4.52 9.06,9.71z"/>
   <path class="fil4" d="M4558.71 2117.49c-0.18,5.19 -4.52,9.22 -9.7,9.06 -5.17,-0.17 -9.24,-4.52 -9.06,-9.7 0.17,-5.17 4.52,-9.23 9.7,-9.06 5.17,0.17 9.23,4.52 9.06,9.7z"/>
   <path class="fil4" d="M4520.55 2315.59c-0.17,5.18 -4.51,9.24 -9.69,9.06 -5.19,-0.17 -9.24,-4.52 -9.07,-9.7 0.18,-5.19 4.52,-9.23 9.7,-9.06 5.19,0.17 9.24,4.52 9.06,9.7z"/>
   <path class="fil4" d="M4482.4 2513.7c-0.17,5.18 -4.53,9.24 -9.7,9.06 -5.18,-0.19 -9.23,-4.54 -9.06,-9.71 0.19,-5.18 4.53,-9.22 9.7,-9.06 5.18,0.18 9.24,4.54 9.06,9.71z"/>
   <path class="fil4" d="M4588.78 1734.8c-2.65,0 -5.02,-1.83 -5.59,-4.52 -0.66,-3.09 1.3,-6.13 4.39,-6.8l28.44 -6.11c3.14,-0.61 6.14,1.3 6.81,4.41 0.66,3.08 -1.31,6.13 -4.4,6.8l-28.44 6.1 -1.2 0.12z"/>
   <path class="fil4" d="M4683.71 1629.32c0,0 -25.63,66.74 -34.24,107.18 -8.64,40.44 -9.15,130.83 -9.15,130.83l43.4 -238z"/>
   <path class="fil4" d="M4640.31 1873.04l-0.03 0c-3.16,-0.02 -5.72,-2.59 -5.69,-5.76 0.02,-3.71 0.62,-91.43 9.28,-132 8.62,-40.41 33.45,-105.29 34.5,-108.04 1.13,-2.94 4.43,-4.41 7.4,-3.29 2.96,1.12 4.43,4.44 3.3,7.39 -0.26,0.68 -25.57,66.81 -34,106.33 -8.41,39.43 -9.02,128.77 -9.02,129.67 -0.02,3.15 -2.58,5.69 -5.73,5.69z"/>
   <path class="fil4" d="M2546.62 2861.41c15.91,-256.52 -13.35,-722.84 468.84,-661.11 516.84,66.15 368.98,670.51 368.98,670.51l-837.82 -9.4z"/>
   <path class="fil7" d="M3089.81 2496.8c0,116.22 -94.21,210.41 -210.41,210.41 -116.21,0 -210.42,-94.19 -210.42,-210.41 0,-116.2 94.2,-210.41 210.42,-210.41 116.2,0 210.41,94.2 210.41,210.41z"/>
   <path class="fil4" d="M2907.03 2286.74c-99.66,-17.04 -206.23,56.43 -216.73,130.86l395.13 36.33c-13.92,-84.84 -99.32,-153.7 -178.4,-167.19z"/>
   <path class="fil4" d="M3040.42 2491.57c-2.83,55.01 -32.8,98.19 -66.96,96.43 -34.16,-1.75 -59.56,-47.77 -56.72,-102.77 2.81,-55.01 32.79,-98.19 66.95,-96.43 34.16,1.74 59.57,47.76 56.74,102.77z"/>
   <path class="fil5" d="M2879.4 2297.85c-109.71,0 -198.97,89.25 -198.97,198.96 0,109.71 89.26,198.96 198.97,198.96 109.7,0 198.96,-89.24 198.96,-198.96 0,-109.71 -89.26,-198.96 -198.96,-198.96zm0 420.82c-122.34,0 -221.87,-99.52 -221.87,-221.86 0,-122.33 99.53,-221.86 221.87,-221.86 122.33,0 221.86,99.53 221.86,221.86 0,122.34 -99.53,221.86 -221.86,221.86z"/>
   <path class="fil8" d="M3343.87 2767.06l-11.46 -0.25c5.82,-60.04 7.54,-146.1 -13.35,-232.7 -0.74,-3.07 1.15,-6.16 4.21,-6.9 0.43,-0.11 0.87,-0.15 1.3,-0.15 2.59,0 4.98,1.73 5.61,4.37 21.16,87.6 19.54,174.63 13.7,235.63z"/>
   <path class="fil8" d="M3293.74 2448.24c-2.18,0 -4.25,-1.24 -5.21,-3.35 -14.73,-32.12 -32.99,-61.63 -54.3,-87.68 -1.99,-2.44 -1.63,-6.04 0.81,-8.05 1.07,-0.88 2.35,-1.31 3.63,-1.31 1.65,0 3.3,0.72 4.43,2.11 21.92,26.81 40.71,57.14 55.84,90.17 1.33,2.88 0.06,6.28 -2.82,7.58l-2.38 0.53z"/>
   <path class="fil4" d="M1473.48 4064.62c-1.43,0 -2.84,-0.01 -4.26,-0.05 -31.62,-0.88 -56.54,-27.21 -55.67,-58.81 0.86,-31.61 26.9,-56.06 58.8,-55.67l1.1 0.01c33.08,0 112.66,-40.18 279.15,-302.63 8.95,-14.09 23.6,-23.59 40.12,-25.99 16.55,-2.35 33.27,2.56 45.86,13.51 205.44,179.11 423.14,290.62 425.31,291.72 28.19,14.31 39.44,48.78 25.13,76.96 -14.31,28.19 -48.77,39.47 -76.95,25.15 -8.65,-4.37 -198.93,-101.67 -398.46,-265.04 -139.54,209.77 -243.09,300.83 -340.15,300.83z"/>
   <path class="fil4" d="M1827.72 3624.7c-1.62,0 -3.25,-0.1 -4.9,-0.34 -18.78,-2.68 -31.83,-20.09 -29.14,-38.87 8.14,-56.99 -1.96,-270.54 -74.15,-436.57 -6.58,-15.14 -1.48,-32.81 12.16,-42.09 156.85,-106.89 490.96,-119.67 505.12,-120.17 18.86,-0.41 34.85,14.18 35.52,33.13 0.67,18.96 -14.18,34.87 -33.13,35.53 -3.1,0.11 -295.2,11.31 -445.3,93.92 63.94,165.33 78.43,371.42 67.78,445.97 -2.45,17.13 -17.14,29.48 -33.96,29.48z"/>
   <path class="fil5" d="M1885.43 3580.24c-22.86,-53.89 -125.82,-47.78 -186.28,-1.59 -32.31,24.67 -76.04,98.94 -80.65,125.85 -4.59,26.92 14.06,51.31 46.08,48.53 39.47,-3.42 93.68,-60.78 93.68,-60.78 -36.06,35.36 10.46,60.3 79.89,9.18 38.51,-28.37 72.86,-60.86 47.28,-121.19z"/>
   <path class="fil4" d="M3969.66 2630.09c5.16,1.93 11.01,3.06 16.46,3.7 57.05,6.75 107.43,-1.23 114.97,-8.33 -1.95,-1.77 -9.63,-6.67 -38.12,-12.12 -37.59,-7.16 -70.43,2.27 -93.3,16.75zm-14.45 64.38l2.96 0.8c40.42,9.9 95.02,11.59 113.74,8.52 -5.8,-2.45 -17.65,-6.37 -41.63,-11.65 -31.75,-7 -56.57,-4.82 -75.07,2.33zm-38.18 75.21c3.16,5.86 7.87,10.69 13.97,13.93 25.83,13.75 76.67,16.9 95.74,9.21 3.91,-1.58 4.49,-2.89 4.49,-2.9 0,-0.03 -0.63,-6.43 -28.64,-18.43 -32.09,-13.73 -57.7,-15.65 -78.22,-5.93 -2.51,1.2 -4.96,2.56 -7.34,4.11zm-62.12 106.86l-1.59 -0.23c-3.04,-0.87 -4.79,-4.06 -3.91,-7.07 15.25,-53.13 31.91,-85.6 53.81,-103.64 -3.35,-11.41 -2.98,-24.51 1.76,-37.32 4.6,-12.47 13.5,-24.86 27.04,-34.41 -6.63,-7.17 -9.09,-16.55 -6.76,-27.26 2.59,-11.92 11.27,-24.85 24.46,-36.15 -5.18,-5.96 -6.44,-12.46 -6.49,-17.26 -0.29,-34.16 63.07,-86.18 134.7,-95.94 3.14,-0.59 6.02,1.75 6.44,4.89 0.43,3.14 -1.78,6.02 -4.91,6.45 -67.99,9.27 -125,58.5 -124.78,84.5 0.04,4.22 1.6,7.6 4.15,10.34 25.78,-17.94 63.83,-29.48 106.28,-21.33 35.15,6.72 49.44,14.14 47.78,24.81 -3.11,20.07 -77.97,24.22 -128.13,18.24 -11.36,-1.35 -19.68,-4.03 -25.76,-7.39 -12.47,10.2 -20.45,21.65 -22.55,31.26 -1.87,8.59 0.91,14.57 5.67,18.73 21.27,-10.96 51.19,-15.54 90.65,-6.81 51.95,11.46 53.9,17.79 55.06,21.56 0.83,2.7 0.16,5.46 -1.85,7.58 -10.95,11.6 -90.53,6.1 -130.52,-3.7 -5.2,-1.28 -9.8,-3.02 -13.76,-5.17 -13.26,8.33 -21.77,19.61 -25.97,31.01 -3.37,9.14 -4.14,18.24 -2.58,26.37 2.06,-1.24 4.16,-2.35 6.31,-3.38 23.69,-11.24 52.35,-9.37 87.65,5.74 23.41,10.03 34.7,18.89 35.53,27.93 0.26,2.68 -0.27,7.78 -6.53,11.93 -17.46,11.6 -78.66,9.85 -110.48,-7.1 -7.5,-4 -13.44,-9.9 -17.61,-17.01 -18.72,17.09 -33.81,47.7 -47.59,95.67 -0.72,2.52 -3.01,4.16 -5.5,4.16z"/>
   <path class="fil4" d="M2364.28 4045.5c7.54,-2.41 5.02,-9.69 -3.41,-9.69l-155.03 0c-295.22,-31.27 -501.48,10.64 -371.5,20.51 129.96,9.89 -9.16,7.81 -104.07,43.71 -94.91,35.91 705.98,44.97 778.83,0 67.18,-41.45 -249.43,-21 -144.82,-54.53z"/>
   <polygon class="fil5" points="3474.33,4091.2 2125.4,4046.47 2069.42,2738.56 3662.35,2774.17 "/>
   <path class="fil4" d="M2546.62 4066.17c-2.95,0 -5.46,-2.26 -5.7,-5.26l-108.14 -1313.64c-0.25,-3.15 2.08,-5.91 5.24,-6.17 3.23,-0.17 5.92,2.09 6.17,5.23l108.14 1313.65c0.26,3.16 -2.08,5.92 -5.24,6.17l-0.47 0.02z"/>
   <polygon class="fil5" points="3474.33,4091.2 3836.88,4036 3951.08,2819.81 3662.35,2774.17 "/>
   <path class="fil4" d="M3474.33 4091.2l14.17 -99.21c1.56,-0.04 3.09,-0.07 4.58,-0.07 43.58,0 58.76,19.75 59.6,20.91 -0.94,-1.3 -1.32,-2.09 -1.32,-2.09l98.57 -58.28c-2.15,-3.64 -42.94,-70.13 -145.11,-74.83l157.54 -1103.46 288.73 45.63 -39.08 416.15 -0.26 2.86 -47.95 510.69 -0.26 2.87 -11.46 122.03 -0.27 2.86 -14.91 158.73 -362.56 55.2z"/>
   <path class="fil4" d="M2240.68 3794.37l-33.25 -777.09c-3.47,-81.09 62.33,-148.28 143.5,-146.46l1008.35 22.55c84.19,1.89 147.83,76.94 135.93,160.31l-111.8 783.14c-10.13,70.97 -72.08,122.93 -143.73,120.56l-863.28 -28.61c-73.42,-2.44 -132.56,-61.02 -135.71,-134.4z"/>
   <path class="fil7" d="M3251.38 3643.7c-4.07,0 -8.13,-1.65 -11.11,-4.89l-98.02 -107.28 -105.77 96.63c-6.13,5.61 -15.63,5.17 -21.24,-0.95l-98.02 -107.28 -105.77 96.63c-6.13,5.61 -15.64,5.18 -21.23,-0.94l-98.04 -107.29 -105.77 96.65c-2.93,2.7 -6.89,4.1 -10.81,3.93 -3.98,-0.18 -7.73,-1.93 -10.42,-4.88l-98.03 -107.28 -105.77 96.63c-6.11,5.59 -15.63,5.15 -21.23,-0.95 -5.6,-6.13 -5.17,-15.64 0.96,-21.23l116.85 -106.79c6.13,-5.62 15.64,-5.18 21.24,0.95l98.02 107.3 105.77 -96.65c2.94,-2.69 6.88,-4.08 10.82,-3.93 3.97,0.18 7.73,1.94 10.42,4.88l98.02 107.28 105.77 -96.64c6.11,-5.61 15.63,-5.17 21.24,0.95l98.02 107.28 105.77 -96.64c6.13,-5.62 15.63,-5.19 21.23,0.95l108.17 118.37c5.6,6.14 5.17,15.65 -0.96,21.25 -2.89,2.63 -6.51,3.93 -10.13,3.93z"/>
   <polygon class="fil5" points="1439.31,4119 1367.65,4084.82 1303.72,3773.74 1338.41,3735.53 "/>
   <polygon class="fil5" points="1439.31,4119 1534.41,4063.45 1452.87,3807.14 1338.41,3735.53 "/>
   <polygon class="fil4" points="1439.31,4119 1338.41,3735.53 1452.87,3807.14 1534.41,4063.45 "/>
   <path class="fil4" d="M2998.89 4175.56c-2.7,0 -5.35,-0.05 -7.91,-0.12 -31.6,-0.87 -56.53,-27.19 -55.66,-58.81 0.87,-31.59 26.98,-56.43 58.8,-55.65 88.21,2.88 274.89,-51.3 381.53,-154.81 6.59,-6.4 14.62,-11.12 23.43,-13.76 180.79,-54.25 248.08,55.35 250.85,60.06l-98.57 58.28c0,0 0.38,0.8 1.32,2.09 -1.09,-1.51 -26.69,-34.8 -108.22,-14.2 -133.83,122.16 -339.26,176.93 -445.56,176.93z"/>
   <polygon class="fil5" points="2992.55,4251.66 2784,4238.52 2767.54,3854.05 3047.82,3864.52 "/>
   <polygon class="fil5" points="2992.55,4251.66 3041.29,4203.15 3071.51,3963.42 3047.82,3864.52 "/>
   <polygon class="fil4" points="2992.55,4251.66 3047.82,3864.52 3071.51,3963.42 3041.29,4203.15 "/>
   <path class="fil4" d="M4200.77 4106.07c-7.23,0 -14.54,-2.29 -20.76,-7 -119.02,-90.46 -279.92,-251.07 -341.66,-406.01 -0.89,-2.26 -1.56,-4.62 -1.96,-7.02 -30.11,-179.01 -58.87,-555.83 -60.08,-571.8 -1.43,-18.91 12.74,-35.4 31.65,-36.83 18.87,-1.4 35.43,12.73 36.86,31.65 0.3,3.85 29.34,384.37 58.72,561.93 61.57,150.66 228.52,305.34 318.05,373.39 15.1,11.48 18.05,33.03 6.56,48.14 -6.76,8.88 -17,13.57 -27.38,13.57z"/>
   <path class="fil4" d="M4359.57 4123.42c-26.57,0 -56.67,-12.04 -89.49,-35.78 -15.37,-11.13 -18.81,-32.6 -7.69,-47.97 11.13,-15.36 32.6,-18.81 47.97,-7.69 28.36,20.53 43.85,22.74 49.2,22.74 18.97,0 34.35,15.38 34.35,34.35 0,18.98 -15.38,34.35 -34.35,34.35z"/>
   <path class="fil5" d="M4279.72 4086.66c36.76,-109.19 187.45,-87.61 239.35,-71.39 51.89,16.21 98.65,36.61 126.75,54.99 28.11,18.37 28.57,49.07 -8.91,66.6 -46.22,21.62 -162.17,2.43 -162.17,2.43 60.02,26.28 -0.12,68.39 -105.41,27.03 -34.27,-13.47 -102.59,-39.66 -89.61,-79.66z"/>
   <path class="fil4" d="M3913.96 3161.37c-13.65,92.76 -90.46,161.18 -152.96,152 -62.5,-9.19 -65.09,-92.04 -51.46,-184.81 13.65,-92.78 38.36,-160.33 100.85,-151.14 62.5,9.18 117.21,91.18 103.57,183.96z"/>
   <path class="fil4" d="M2411.98 2781.65c0,5.19 -4.19,9.39 -9.38,9.39 -5.19,0 -9.38,-4.2 -9.38,-9.39 0,-5.18 4.19,-9.38 9.38,-9.38 5.19,0 9.38,4.2 9.38,9.38z"/>
   <path class="fil4" d="M2498.02 2849.24c0,5.19 -4.19,9.39 -9.38,9.39 -5.19,0 -9.39,-4.2 -9.39,-9.39 0,-5.17 4.2,-9.39 9.39,-9.39 5.19,0 9.38,4.22 9.38,9.39z"/>
   <path class="fil4" d="M2508.52 3958.87c0,5.19 -4.2,9.37 -9.38,9.37 -5.19,0 -9.39,-4.19 -9.39,-9.37 0,-5.18 4.2,-9.38 9.39,-9.38 5.17,0 9.38,4.2 9.38,9.38z"/>
   <path class="fil4" d="M2594.56 4026.46c0,5.19 -4.2,9.39 -9.39,9.39 -5.18,0 -9.38,-4.2 -9.38,-9.39 0,-5.19 4.2,-9.39 9.38,-9.39 5.19,0 9.39,4.2 9.39,9.39z"/>
   <path class="fil4" d="M1070.11 4024.36l-0.02 0c-0.03,0.01 -4.3,2.18 -5.96,21.3 -1.67,19.27 1.83,32.33 10.7,39.89 2.01,1.74 4.31,3.17 6.86,4.34 3.23,-3.57 5.44,-7.59 6.22,-11.77 3.07,-16.59 -4.83,-40.89 -13.69,-50.72 -2.3,-2.56 -3.78,-3.04 -4.1,-3.04zm-72.04 9.94c-0.07,4.31 0.32,11.55 2.03,23.58 2.32,16.34 8.35,28.91 17.39,36.9 -2.68,-23 -12.89,-49.62 -19.42,-60.48zm-63.8 9.99c-0.66,1.75 -1.86,7.55 0.97,23.41 3.76,21.07 17.4,35.06 32.51,42.46 -0.07,-2.44 -0.52,-5.15 -1.33,-8.11 -8.99,-32.72 -26.09,-55.28 -32.15,-57.76zm9.9 94.78c-27.25,0 -64.09,-16.51 -83.97,-45.22 -1.8,-2.59 -1.15,-6.16 1.44,-7.96 2.6,-1.81 6.16,-1.15 7.96,1.45 21.37,30.85 68.47,47.31 89.38,37.56 2.2,-1.03 3.98,-2.33 5.35,-3.88 -18.69,-8.63 -35.77,-25.54 -40.38,-51.31 -2.59,-14.52 -4.65,-34.13 7.32,-36.84 16.42,-3.69 37.91,36.03 46.17,66.13 1.53,5.57 2.02,10.73 1.49,15.38 7.24,1.98 14.36,2.5 20.46,1.61 4.96,-0.72 12.01,-2.76 15.74,-8.53 -13.91,-9.41 -23.27,-25.98 -26.39,-47.98 -4.44,-31.31 -1.11,-36.77 2.36,-39.44 2.26,-1.74 5.12,-2.06 7.88,-0.89 12.24,5.2 27.09,49.63 29.92,74.76 0.31,2.77 0.31,5.43 0.03,7.93 4.68,1.87 9.85,2.89 15.44,3 9.93,0.57 19.74,-2.59 27.59,-7.2 -1.63,-1.02 -3.16,-2.14 -4.6,-3.38 -11.88,-10.14 -16.67,-26.37 -14.66,-49.59 1.55,-17.94 5.64,-27.76 12.85,-30.83 2.53,-1.12 7.69,-2.18 13.83,2.74 12.36,9.88 23.91,41.19 19.76,63.63 -0.86,4.64 -2.86,9.09 -5.75,13.18 21.01,3.62 50.58,-2.28 76.08,-8.57 3.06,-0.75 6.17,1.11 6.93,4.18 0.76,3.08 -1.11,6.17 -4.18,6.93 -31.03,7.68 -64.44,13.92 -88.03,7.07 -10.49,8.34 -25.26,13.41 -40.06,13.31 -6.74,-0.14 -13.03,-1.34 -18.77,-3.53 -4.51,7.69 -12.91,12.88 -24.32,14.56 -7.61,1.13 -16.56,0.4 -25.63,-2.19 -2.58,4.29 -6.47,7.73 -11.6,10.13 -5.48,2.55 -12.21,3.78 -19.66,3.79z"/>
   <polygon class="fil4" points="2620.15,4225.62 2651.18,4171.8 2620.15,4117.99 2586.93,4117.99 2605.69,4171.81 2586.93,4225.62 "/>
   <path class="fil4" d="M2589.11 4199.86c-15.46,0 -28.06,-12.6 -28.06,-28.06 0,-15.46 12.6,-27.94 28.06,-27.94l-52.75 -10.56 -14 42.61 23.54 35.94 43.22 -12z"/>
   <path class="fil5" d="M2562.59 4199.86c-15.46,0 -28.05,-12.6 -28.05,-28.06 0,-15.46 12.59,-27.94 28.05,-27.94 15.46,0 27.94,12.48 27.94,27.94 0,15.46 -12.48,28.06 -27.94,28.06zm31.03 -81.87l-62.18 0 -31.03 53.81 31.03 53.82 62.18 0 31.04 -53.82 -31.04 -53.81z"/>
   <polygon class="fil5" points="4784.52,4114.4 4761.48,4074.43 4784.52,4034.47 4809.2,4034.47 4795.26,4074.43 4809.2,4114.4 "/>
   <path class="fil5" d="M4807.57 4095.26c11.48,0 20.84,-9.34 20.84,-20.83 0,-11.47 -9.35,-20.76 -20.84,-20.76l39.19 -7.83 10.4 31.64 -17.48 26.69 -32.1 -8.91z"/>
   <path class="fil4" d="M4827.28 4095.26c11.47,0 20.83,-9.34 20.83,-20.83 0,-11.47 -9.35,-20.76 -20.83,-20.76 -11.49,0 -20.76,9.29 -20.76,20.76 0,11.49 9.28,20.83 20.76,20.83zm-23.06 -60.79l46.19 0 23.04 39.96 -23.04 39.96 -46.19 0 -23.05 -39.96 23.05 -39.96z"/>
   <path class="fil4" d="M3926.39 4167.46l51.73 0c13.46,0 24.49,-11.03 24.49,-24.51 0,-13.46 -11.03,-24.48 -24.49,-24.48l-51.73 0c-13.48,0 -24.5,11.02 -24.5,24.48 0,13.48 11.02,24.51 24.5,24.51z"/>
   <path class="fil5" d="M3843.74 4121.26c12.77,-27.1 43.74,-39.35 69.17,-27.35 25.43,12 35.69,43.67 22.93,70.78 -12.78,27.09 -43.75,39.33 -69.19,27.33 -25.43,-11.99 -35.69,-43.66 -22.91,-70.75z"/>
   <polygon class="fil4" points="3858.03,4191.93 3872.22,4198.63 3921.55,4093.99 3907.36,4087.31 "/>
   <path class="fil9" d="M2345.2 3306.5l6.94 -205.96 149.77 5.04 -1.62 47.96 -93.86 -3.16 -3.7 110.05 98.28 3.31 -1.62 47.96 -154.18 -5.19zm30.41 -80.87l1.53 -45.31 110.34 3.72 -1.53 45.31 -110.34 -3.72zm163.49 87.4l6.94 -205.96 95.04 3.2c13.93,0.47 26.29,3.73 37.08,9.79 10.79,6.06 19.11,14.09 24.96,24.11 5.85,10.02 8.56,21.4 8.13,34.15 -0.46,13.73 -3.96,25.78 -10.5,36.17 -6.54,10.39 -15.39,18.39 -26.58,24 -11.18,5.61 -23.74,8.19 -37.67,7.72l-40.31 -1.36 -2.35 70.03 -54.73 -1.84zm110.34 3.71l-49.24 -94.74 59.98 -5.34 54.88 102.29 -65.62 -2.21zm-51.85 -113.68l32.37 1.09c5.1,0.17 9.4,-0.72 12.91,-2.66 3.5,-1.94 6.24,-4.7 8.23,-8.26 1.98,-3.57 3.06,-7.8 3.22,-12.71 0.16,-4.7 -0.69,-8.81 -2.53,-12.31 -1.85,-3.5 -4.65,-6.24 -8.41,-8.24 -3.76,-1.99 -8.49,-3.08 -14.17,-3.28l-30.01 -1.01 -1.6 47.37zm148.95 116.95l6.93 -205.96 95.04 3.2c13.93,0.46 26.29,3.73 37.08,9.79 10.8,6.06 19.11,14.09 24.97,24.11 5.85,10.02 8.56,21.4 8.13,34.15 -0.46,13.73 -3.96,25.79 -10.49,36.17 -6.54,10.39 -15.4,18.39 -26.59,24 -11.18,5.61 -23.74,8.18 -37.67,7.71l-40.31 -1.36 -2.36 70.03 -54.73 -1.84zm110.34 3.71l-49.25 -94.74 59.98 -5.35 54.88 102.3 -65.61 -2.21zm-51.85 -113.68l32.37 1.09c5.1,0.17 9.4,-0.72 12.91,-2.66 3.5,-1.94 6.25,-4.7 8.23,-8.26 1.98,-3.56 3.06,-7.8 3.22,-12.71 0.16,-4.7 -0.68,-8.81 -2.52,-12.31 -1.85,-3.5 -4.66,-6.24 -8.41,-8.23 -3.77,-1.99 -8.49,-3.09 -14.18,-3.28l-30.02 -1.01 -1.6 47.37zm243.01 123.06c-15.89,-0.54 -30.41,-3.68 -43.57,-9.42 -13.16,-5.74 -24.48,-13.59 -33.97,-23.53 -9.48,-9.94 -16.7,-21.52 -21.66,-34.75 -4.96,-13.22 -7.17,-27.58 -6.65,-43.08 0.53,-15.69 3.7,-29.92 9.54,-42.69 5.83,-12.76 13.81,-23.79 23.94,-33.07 10.13,-9.28 21.96,-16.35 35.47,-21.2 13.52,-4.85 28.22,-7 44.11,-6.46 15.89,0.53 30.37,3.67 43.43,9.41 13.06,5.74 24.39,13.59 33.96,23.53 9.59,9.94 16.81,21.48 21.67,34.6 4.86,13.13 7.03,27.44 6.51,42.93 -0.53,15.69 -3.66,29.98 -9.39,42.84 -5.74,12.86 -13.72,23.94 -23.95,33.21 -10.23,9.28 -22.06,16.35 -35.47,21.19 -13.42,4.85 -28.07,7.01 -43.96,6.48zm1.82 -54.14c7.07,0.24 13.68,-0.81 19.85,-3.16 6.17,-2.34 11.59,-5.85 16.26,-10.5 4.67,-4.66 8.35,-10.18 11.02,-16.57 2.67,-6.39 4.13,-13.41 4.39,-21.06 0.26,-7.65 -0.73,-14.76 -2.96,-21.31 -2.23,-6.56 -5.53,-12.31 -9.87,-17.27 -4.35,-4.95 -9.52,-8.81 -15.52,-11.57 -6,-2.75 -12.52,-4.25 -19.59,-4.49 -7.26,-0.24 -13.97,0.81 -20.13,3.16 -6.17,2.35 -11.59,5.84 -16.26,10.5 -4.67,4.65 -8.34,10.13 -11,16.42 -2.67,6.29 -4.13,13.36 -4.4,21.21 -0.26,7.65 0.73,14.75 2.96,21.31 2.23,6.56 5.53,12.31 9.87,17.28 4.35,4.95 9.52,8.81 15.52,11.57 6,2.75 12.62,4.25 19.87,4.5zm143.93 56.1l6.93 -205.96 95.04 3.2c13.93,0.47 26.28,3.74 37.08,9.79 10.8,6.06 19.11,14.09 24.96,24.11 5.85,10.02 8.56,21.4 8.13,34.15 -0.46,13.73 -3.96,25.79 -10.49,36.17 -6.54,10.39 -15.4,18.38 -26.58,24 -11.19,5.61 -23.74,8.19 -37.67,7.72l-40.31 -1.36 -2.36 70.03 -54.72 -1.84zm110.34 3.72l-49.24 -94.74 59.98 -5.35 54.88 102.3 -65.61 -2.21zm-51.85 -113.68l32.36 1.09c5.11,0.17 9.4,-0.72 12.91,-2.66 3.5,-1.94 6.25,-4.7 8.23,-8.27 1.99,-3.56 3.06,-7.8 3.22,-12.7 0.16,-4.71 -0.68,-8.81 -2.52,-12.31 -1.85,-3.5 -4.66,-6.24 -8.41,-8.23 -3.77,-2 -8.49,-3.09 -14.18,-3.28l-30.02 -1.01 -1.59 47.38z"/>
   <path class="fil4" d="M1178.95 875.52c-23.7,4.99 -46.32,5.64 -67.88,1.94 -21.56,-3.7 -41.17,-11.19 -58.81,-22.44 -17.65,-11.25 -32.54,-25.76 -44.69,-43.52 -12.15,-17.76 -20.65,-38.19 -25.52,-61.31 -4.93,-23.4 -5.41,-45.6 -1.44,-66.61 3.98,-21 11.76,-40.22 23.37,-57.63 11.61,-17.42 26.53,-32.17 44.75,-44.26 18.23,-12.09 39.19,-20.64 62.89,-25.63 23.7,-5 46.26,-5.62 67.67,-1.89 21.41,3.74 41.01,11.21 58.81,22.44 17.8,11.22 32.68,25.65 44.65,43.3 11.97,17.65 20.39,38.02 25.26,61.13 4.93,23.41 5.5,45.67 1.7,66.79 -3.8,21.12 -11.57,40.4 -23.33,57.85 -11.75,17.45 -26.67,32.2 -44.76,44.26 -18.08,12.06 -38.96,20.59 -62.67,25.58zm-17.02 -80.74c10.53,-2.22 19.93,-6.19 28.2,-11.9 8.26,-5.72 15.01,-12.87 20.23,-21.45 5.22,-8.58 8.64,-18.09 10.26,-28.51 1.62,-10.43 1.23,-21.34 -1.18,-32.75 -2.41,-11.41 -6.45,-21.56 -12.14,-30.44 -5.69,-8.88 -12.66,-16.2 -20.9,-21.95 -8.24,-5.75 -17.3,-9.57 -27.17,-11.46 -9.87,-1.89 -20.07,-1.72 -30.6,0.5 -10.83,2.28 -20.37,6.28 -28.64,11.99 -8.26,5.72 -15.01,12.87 -20.23,21.45 -5.21,8.59 -8.65,18.02 -10.3,28.3 -1.65,10.28 -1.24,21.27 1.22,32.97 2.41,11.41 6.46,21.56 12.15,30.44 5.7,8.88 12.66,16.2 20.9,21.95 8.24,5.75 17.3,9.57 27.16,11.46 9.88,1.89 20.22,1.7 31.05,-0.59zm341.32 12.39c-24.87,5.24 -48.21,4.66 -70.04,-1.74 -21.82,-6.4 -40.2,-17.5 -55.14,-33.3 -14.94,-15.79 -24.91,-35.54 -29.91,-59.24 -4.99,-23.69 -3.84,-45.78 3.45,-66.27 7.3,-20.48 19.63,-38.05 37.01,-52.71 17.38,-14.67 38.51,-24.62 63.38,-29.86 24.86,-5.24 48.13,-4.64 69.81,1.79 21.67,6.43 39.98,17.54 54.92,33.33 14.94,15.8 24.91,35.54 29.9,59.24 5,23.7 3.85,45.78 -3.44,66.27 -7.29,20.48 -19.56,38.04 -36.79,52.67 -17.24,14.64 -38.29,24.57 -63.15,29.81zm-14.52 -68.89c8.78,-1.85 16.27,-5.8 22.48,-11.84 6.21,-6.04 10.44,-13.5 12.7,-22.38 2.25,-8.88 2.33,-18.3 0.24,-28.24 -2.22,-10.53 -6.14,-19.33 -11.75,-26.4 -5.61,-7.07 -12.48,-12.11 -20.61,-15.14 -8.12,-3.02 -16.57,-3.61 -25.35,-1.76 -9.07,1.91 -16.64,5.87 -22.71,11.89 -6.06,6.01 -10.3,13.47 -12.69,22.39 -2.4,8.9 -2.52,18.48 -0.37,28.72 2.09,9.94 6.04,18.51 11.83,25.69 5.8,7.18 12.68,12.3 20.65,15.36 7.98,3.05 16.5,3.62 25.57,1.71zm207.28 124.52l-69.65 -330.43 76.36 -16.1 14.87 50.95 -16.63 -0.62c-0.34,-10.32 2.68,-20.27 9.06,-29.87 6.38,-9.59 15.08,-18 26.08,-25.2 11.01,-7.21 23.54,-12.3 37.58,-15.26 19.6,-4.13 38.1,-2.61 55.5,4.57 17.4,7.18 32.41,18.91 45,35.2 12.6,16.29 21.43,36.43 26.48,60.42 4.93,23.4 4.93,45.17 0.02,65.3 -4.92,20.13 -14.04,37.03 -27.36,50.68 -13.31,13.66 -29.92,22.58 -49.81,26.77 -13.17,2.78 -26.18,3 -39.04,0.67 -12.87,-2.32 -24.2,-6.81 -34,-13.46 -9.8,-6.65 -16.98,-14.98 -21.54,-25.02l17.13 -10.03 32.47 154.03 -82.5 17.39zm91.4 -186.09c9.36,-1.98 16.94,-5.87 22.74,-11.67 5.81,-5.81 9.61,-13.1 11.43,-21.89 1.81,-8.78 1.55,-18.73 -0.79,-29.85 -2.4,-11.41 -6.21,-20.77 -11.42,-28.07 -5.2,-7.3 -11.63,-12.44 -19.29,-15.41 -7.65,-2.96 -16.17,-3.46 -25.52,-1.49 -9.36,1.98 -16.96,5.79 -22.79,11.45 -5.84,5.65 -9.65,12.95 -11.43,21.89 -1.78,8.93 -1.47,19.1 0.93,30.51 2.34,11.12 6.12,20.33 11.32,27.64 5.2,7.3 11.64,12.44 19.29,15.41 7.65,2.97 16.16,3.47 25.52,1.5zm263.5 15.04c-24.28,5.11 -46.44,5.82 -66.48,2.09 -20.03,-3.72 -36.43,-10.5 -49.2,-20.33l39.14 -51.33c11.15,6.51 23.08,10.56 35.79,12.17 12.72,1.59 23.6,1.44 32.67,-0.47 3.22,-0.68 6.08,-1.58 8.59,-2.72 2.51,-1.14 4.43,-2.54 5.76,-4.2 1.33,-1.65 2.34,-3.4 3.02,-5.22 0.69,-1.83 0.81,-3.76 0.38,-5.81 -1.05,-4.98 -4.34,-8.26 -9.87,-9.84 -2.88,-0.62 -7.52,-1.24 -13.92,-1.88 -6.39,-0.64 -14.81,-1.08 -25.26,-1.32 -12.96,-0.63 -24.76,-2.2 -35.36,-4.69 -10.61,-2.5 -19.93,-6.12 -27.96,-10.84 -7.73,-4.79 -14.27,-10.82 -19.63,-18.09 -5.35,-7.28 -9.05,-15.74 -11.08,-25.39 -2.47,-11.7 -2.02,-22.64 1.33,-32.83 3.35,-10.18 9.02,-19.54 17,-28.09 7.97,-8.56 17.46,-15.75 28.44,-21.58 11,-5.83 22.63,-10.04 34.93,-12.63 13.75,-2.9 26.99,-4.24 39.72,-4.02 12.72,0.22 24.96,1.76 36.72,4.63 11.76,2.87 22.65,7.06 32.67,12.59l-32.32 55.4c-5.9,-3.34 -12.54,-6.22 -19.93,-8.64 -7.39,-2.42 -14.85,-4.13 -22.39,-5.13 -7.54,-1.01 -14.39,-0.86 -20.53,0.43 -3.8,0.8 -6.96,1.78 -9.47,2.92 -2.51,1.13 -4.52,2.48 -6.03,4.02 -1.51,1.54 -2.52,3.28 -3.03,5.22 -0.51,1.94 -0.54,3.94 -0.11,5.98 0.56,2.63 1.81,4.97 3.77,7 1.96,2.03 4.7,3.44 8.22,4.22 2.94,0.91 7.79,1.8 14.54,2.67 6.75,0.87 16.46,1.65 29.13,2.33 14.26,0.96 26.89,2.89 37.89,5.77 11,2.88 20.24,6.88 27.74,12.02 5.44,4.05 9.96,8.82 13.56,14.33 3.61,5.5 6.18,11.91 7.72,19.23 3.27,15.51 1.72,30.27 -4.64,44.29 -6.37,14.02 -16.57,26.1 -30.63,36.25 -14.06,10.14 -31.03,17.31 -50.93,21.5zm133.7 -152.84c-6.27,-16.7 -12.7,-34.14 -19.28,-52.31 -6.57,-18.17 -12.69,-36.28 -18.33,-54.35 -5.64,-18.06 -10.28,-35.72 -13.91,-52.98l-7.68 -36.42 86.01 -18.13 7.68 36.42c3.64,17.26 6.54,35.37 8.7,54.31 2.16,18.94 3.89,37.98 5.16,57.11 1.28,19.13 2.43,37.61 3.44,55.43l-51.78 10.91zm51.14 114.34c-12.87,2.72 -23.74,1.19 -32.59,-4.59 -8.85,-5.77 -14.7,-15.39 -17.54,-28.85 -2.59,-12.28 -0.84,-23.19 5.25,-32.72 6.09,-9.54 15.13,-15.57 27.12,-18.09 13.17,-2.78 24.1,-1.26 32.81,4.54 8.7,5.8 14.48,15.44 17.31,28.89 2.59,12.29 0.91,23.19 -5.03,32.68 -5.94,9.5 -15.06,15.55 -27.35,18.14z"/>
  </g>
 </g>
</svg>
