<?xml version="1.0" encoding="UTF-8"?>
<!DOCTYPE svg PUBLIC "-//W3C//DTD SVG 1.1//EN" "http://www.w3.org/Graphics/SVG/1.1/DTD/svg11.dtd">
<!-- Creator: CorelDRAW 2020 (64 Bit) -->
<svg xmlns="http://www.w3.org/2000/svg" xml:space="preserve" width="2.04769in" height="1.30543in" version="1.1" style="shape-rendering:geometricPrecision; text-rendering:geometricPrecision; image-rendering:optimizeQuality; fill-rule:evenodd; clip-rule:evenodd"
viewBox="0 0 2047.69 1305.43"
 xmlns:xlink="http://www.w3.org/1999/xlink"
 xmlns:xodm="http://www.corel.com/coreldraw/odm/2003">
 <defs>
  <style type="text/css">
   <![CDATA[
    .fil2 {fill:#0B132B}
    .fil1 {fill:#475DDB}
    .fil0 {fill:#5E75FB}
   ]]>
  </style>
 </defs>
 <g id="Camada_x0020_1">
  <metadata id="CorelCorpID_0Corel-Layer"/>
  <g id="_991695968">
   <path class="fil0" d="M286.33 246.35l858.36 113.73c85.04,11.27 146.09,90.11 135.71,175.27l-94.03 771.63 -1186.37 0 112.89 -926.31c10.37,-85.15 88.4,-145.59 173.44,-134.32z"/>
   <path class="fil1" d="M707.06 82.96l830.71 252.33c82.3,24.98 130.68,113.21 107.53,196.06l-216.7 775.63 -1225.83 0 312.59 -1118.85c23.15,-82.85 109.39,-130.17 191.7,-105.17z"/>
   <path class="fil2" d="M1157.3 15.02l795.06 356.02c78.76,35.27 116.28,129.39 83.4,209.22l-299.31 726.72 -1279.37 0c1.75,-6.61 3.94,-13.15 6.61,-19.61l490.68 -1191.34c32.88,-79.83 124.17,-116.28 202.93,-81.01z"/>
  </g>
 </g>
</svg>
